<svg width="709" height="107" viewBox="0 0 709 107" fill="none" xmlns="http://www.w3.org/2000/svg">
<path d="M2.32114 98.0391C0.0437951 95.9766 -0.557767 94.1719 0.516451 92.625L3.86801 87.791C5.02817 86.1152 6.89731 86.2441 9.47544 88.1777C12.87 90.7129 16.3934 92.7969 20.0457 94.4297C23.7411 96.0625 28.2098 96.8789 33.452 96.8789C37.3192 96.8789 40.5848 96.2988 43.2489 95.1387C45.9129 93.9785 48.0399 92.3242 49.6297 90.1758C51.2625 87.9844 52.079 85.3418 52.079 82.248C52.079 80.0137 51.7352 77.9512 51.0477 76.0605C50.4032 74.127 49.3504 72.5156 47.8895 71.2266C46.4286 69.9375 44.9032 68.9277 43.3133 68.1973C40.6922 66.9941 36.7606 65.5977 31.5184 64.0078C26.3192 62.418 21.7645 60.6992 17.8543 58.8516C13.9872 57.0039 10.8934 54.7695 8.57309 52.1484C6.29575 49.5273 4.77036 46.8418 3.99692 44.0918C3.26645 41.2988 2.90122 38.1191 2.90122 34.5527C2.90122 29.0957 4.49106 24.3906 7.67075 20.4375C10.8504 16.4844 14.7391 13.8633 19.3368 12.5742C23.9774 11.2852 28.6825 10.6406 33.452 10.6406C38.909 10.6406 43.6571 11.3496 47.6961 12.7676C51.7352 14.1855 55.3446 16.0332 58.5243 18.3105C60.7586 19.9004 61.2743 21.5762 60.0711 23.3379L56.784 28.043C55.7957 29.4609 53.8622 29.1602 50.9832 27.1406C48.7918 25.5938 46.1063 24.1543 42.9266 22.8223C39.7899 21.4473 36.6747 20.7598 33.5809 20.7598C29.6278 20.7598 26.3407 21.2324 23.7196 22.1777C21.0985 23.0801 19.036 24.627 17.5321 26.8184C16.0282 29.0098 15.2762 31.5449 15.2762 34.4238C15.2762 36.2285 15.4481 37.9043 15.7918 39.4512C16.1356 40.9551 17.0165 42.502 18.4344 44.0918C19.8524 45.6816 21.5711 46.9062 23.5907 47.7656C26.2977 48.9258 30.4872 50.3008 36.159 51.8906C41.8739 53.4375 46.8582 55.3496 51.1122 57.627C55.0653 59.7324 57.9012 61.9453 59.62 64.2656C61.3817 66.543 62.7352 69.0352 63.6805 71.7422C64.6688 74.4062 65.1629 77.4141 65.1629 80.7656C65.1629 86.8672 63.5946 91.959 60.4579 96.041C57.3211 100.123 53.6043 102.959 49.3075 104.549C45.0106 106.139 39.618 106.934 33.1297 106.934C25.3524 106.934 18.9071 106.031 13.7938 104.227C8.68051 102.422 4.8563 100.359 2.32114 98.0391Z" fill="#0F5976"/>
<path d="M75.9911 71.1621C75.9911 61.0645 78.4832 52.7285 83.4676 46.1543C88.495 39.5371 96.1649 36.2285 106.477 36.2285C113.438 36.2285 118.745 37.4746 122.397 39.9668C126.093 42.416 128.757 44.9297 130.389 47.5078C131.292 48.9258 131.098 50.0645 129.809 50.9238L125.749 53.5664C124.46 54.4688 123.171 53.8887 121.882 51.8262C120.636 49.8496 118.874 48.1523 116.597 46.7344C114.362 45.3164 110.989 44.6074 106.477 44.6074C100.591 44.6074 96.036 46.7773 92.8133 51.1172C89.5907 55.457 87.9793 62.1387 87.9793 71.1621C87.9793 80.1855 89.5907 86.8672 92.8133 91.207C96.036 95.5469 100.591 97.7168 106.477 97.7168C111.247 97.7168 114.899 96.8145 117.434 95.0098C119.97 93.1621 121.817 91.1641 122.977 89.0156C124.095 86.9961 125.362 86.416 126.78 87.2754L131.098 89.8535C132.388 90.627 132.581 91.7871 131.679 93.334C130.604 95.1816 128.155 97.7812 124.331 101.133C120.55 104.441 114.598 106.096 106.477 106.096C96.1649 106.096 88.495 102.809 83.4676 96.2344C78.4832 89.6172 75.9911 81.2598 75.9911 71.1621Z" fill="#0F5976"/>
<path d="M148.694 105C146.761 105 145.794 104.033 145.794 102.1V12.7676C145.794 10.834 146.761 9.86719 148.694 9.86719H154.237C156.171 9.86719 157.138 10.834 157.138 12.7676V41.5137C157.138 42.8027 157.095 44.0918 157.009 45.3809H157.266C160.059 42.2871 163.067 39.9883 166.29 38.4844C169.513 36.9805 173.53 36.2285 178.343 36.2285C186.163 36.2285 191.77 38.4414 195.165 42.8672C198.602 47.25 200.321 53.2656 200.321 60.9141V102.1C200.321 104.033 199.354 105 197.421 105H191.878C189.944 105 188.977 104.033 188.977 102.1V64.0078C188.977 55.5859 187.581 50.2578 184.788 48.0234C181.995 45.7461 178.45 44.6074 174.153 44.6074C168.567 44.6074 164.335 46.2832 161.456 49.6348C158.577 52.9434 157.138 58.6367 157.138 66.7148V102.1C157.138 104.033 156.171 105 154.237 105H148.694Z" fill="#0F5976"/>
<path d="M323.665 6V105H311.677V6H323.665Z" fill="#0F5976"/>
<path d="M339.198 86.9531C339.198 79.3047 342.764 73.6973 349.897 70.1309C357.073 66.5645 367.772 64.4805 381.995 63.8789V59.4961C381.995 55.457 381.071 51.9766 379.223 49.0547C377.419 46.0898 373.809 44.6074 368.395 44.6074C364.958 44.6074 362.208 44.9512 360.145 45.6387C358.083 46.2832 356.192 47.1641 354.473 48.2812C352.798 49.3555 351.186 50.752 349.639 52.4707C348.479 53.7598 347.384 53.8242 346.352 52.6641L343.001 48.7969C342.056 47.7227 342.378 46.4336 343.968 44.9297C346.245 42.7812 348.458 41.1699 350.606 40.0957C352.755 39.0215 355.419 38.1191 358.598 37.3887C361.821 36.6152 365.087 36.2285 368.395 36.2285C377.376 36.2285 383.778 38.5488 387.602 43.1895C391.427 47.7871 393.339 54.1035 393.339 62.1387V102.1C393.339 104.033 392.372 105 390.438 105H384.638C382.962 105 382.124 104.033 382.124 102.1V98.9414H381.995C378.6 101.605 375.27 103.475 372.005 104.549C368.782 105.58 365.173 106.096 361.177 106.096C354.13 106.096 348.694 104.42 344.87 101.068C341.089 97.6738 339.198 92.9688 339.198 86.9531ZM350.929 87.2109C350.929 89.875 351.487 92.0234 352.604 93.6562C353.722 95.2461 355.268 96.2773 357.245 96.75C359.222 97.1797 361.284 97.3945 363.432 97.3945C366.741 97.3945 369.878 97.0723 372.843 96.4277C375.807 95.7832 378.858 94.0859 381.995 91.3359V72.3223C373.315 72.9668 367.128 73.7617 363.432 74.707C359.737 75.6094 356.729 77.1992 354.409 79.4766C352.089 81.7109 350.929 84.2891 350.929 87.2109Z" fill="#0F5976"/>
<path d="M414.608 105C412.675 105 411.708 104.033 411.708 102.1V40.2246C411.708 38.291 412.675 37.3242 414.608 37.3242H420.022C421.956 37.3242 422.923 38.291 422.923 40.2246V47.959H423.181C425.243 44.0918 427.671 41.1699 430.464 39.1934C433.257 37.2168 436.737 36.2285 440.905 36.2285C443.655 36.2285 445.589 36.4648 446.706 36.9375C447.694 37.3242 448.059 37.9688 447.802 38.8711L446.319 44.1562C446.104 44.9297 445.546 45.2305 444.643 45.0586C443.139 44.7578 441.722 44.6074 440.389 44.6074C435.362 44.6074 431.216 46.8848 427.95 51.4395C424.684 55.9512 423.052 62.1172 423.052 69.9375V102.1C423.052 104.033 422.085 105 420.151 105H414.608Z" fill="#0F5976"/>
<path d="M461.143 105C459.21 105 458.243 104.033 458.243 102.1V12.7676C458.243 10.834 459.21 9.86719 461.143 9.86719H466.686C468.62 9.86719 469.587 10.834 469.587 12.7676V41.5137C469.587 42.8027 469.544 44.0918 469.458 45.3809H469.716C472.509 42.2871 475.516 39.9883 478.739 38.4844C481.962 36.9805 485.979 36.2285 490.792 36.2285C498.612 36.2285 504.22 38.4414 507.614 42.8672C511.052 47.25 512.77 53.2656 512.77 60.9141V102.1C512.77 104.033 511.804 105 509.87 105H504.327C502.393 105 501.427 104.033 501.427 102.1V64.0078C501.427 55.5859 500.03 50.2578 497.237 48.0234C494.444 45.7461 490.899 44.6074 486.602 44.6074C481.016 44.6074 476.784 46.2832 473.905 49.6348C471.026 52.9434 469.587 58.6367 469.587 66.7148V102.1C469.587 104.033 468.62 105 466.686 105H461.143Z" fill="#3F94B1"/>
<path d="M533.847 105C531.913 105 530.946 104.033 530.946 102.1V40.2246C530.946 38.291 531.913 37.3242 533.847 37.3242H539.39C541.323 37.3242 542.29 38.291 542.29 40.2246V102.1C542.29 104.033 541.323 105 539.39 105H533.847ZM533.847 25.0781C531.913 25.0781 530.946 24.1113 530.946 22.1777V16.6348C530.946 14.7012 531.913 13.7344 533.847 13.7344H539.39C541.323 13.7344 542.29 14.7012 542.29 16.6348V22.1777C542.29 24.1113 541.323 25.0781 539.39 25.0781H533.847Z" fill="#3F94B1"/>
<path d="M555.438 40.4824C554.708 38.377 555.288 37.3242 557.179 37.3242H564.204C565.579 37.3242 566.546 38.1621 567.104 39.8379L580.768 82.377C581.886 85.8574 582.638 88.2637 583.024 89.5957C583.454 90.8848 583.841 92.4961 584.184 94.4297H584.442C584.786 92.4961 585.151 90.8848 585.538 89.5957C585.968 88.2637 586.741 85.8574 587.858 82.377L601.522 39.8379C602.081 38.1621 603.048 37.3242 604.423 37.3242H611.448C613.339 37.3242 613.919 38.377 613.188 40.4824L592.048 101.068C591.145 103.689 589.985 105 588.567 105H580.059C578.641 105 577.481 103.689 576.579 101.068L555.438 40.4824Z" fill="#3F94B1"/>
<path d="M620.472 71.1621C620.472 60.5059 623.136 52.0195 628.464 45.7031C633.792 39.3867 641.419 36.2285 651.345 36.2285C659.595 36.2285 666.427 39.1289 671.841 44.9297C677.298 50.6875 680.026 59.9043 680.026 72.5801C680.026 74.5137 679.145 75.4805 677.384 75.4805H632.46C633.19 83.7734 635.425 89.5527 639.163 92.8184C642.901 96.041 647.134 97.6523 651.86 97.6523C656.845 97.6523 660.669 96.8145 663.333 95.1387C665.997 93.4629 667.952 91.8086 669.198 90.1758C670.573 88.3711 671.905 88.0273 673.194 89.1445L676.997 92.4316C677.985 93.291 677.985 94.4727 676.997 95.9766C676.181 97.2227 673.839 99.2207 669.972 101.971C666.147 104.721 660.11 106.096 651.86 106.096C641.118 106.096 633.19 102.938 628.077 96.6211C623.007 90.3047 620.472 81.8184 620.472 71.1621ZM632.202 67.1016H668.618C668.446 61.0859 666.899 55.8223 663.977 51.3105C661.056 46.7559 656.759 44.4785 651.087 44.4785C646.102 44.4785 641.87 46.1543 638.39 49.5059C634.909 52.8145 632.847 58.6797 632.202 67.1016Z" fill="#3F94B1"/>
<path d="M698.653 105C696.72 105 695.753 104.033 695.753 102.1V94.2363C695.753 92.3027 696.72 91.3359 698.653 91.3359H705.872C707.806 91.3359 708.772 92.3027 708.772 94.2363V102.1C708.772 104.033 707.806 105 705.872 105H698.653Z" fill="#3F94B1"/>
<path d="M236.622 6C236.622 2.68629 239.308 0 242.622 0H268.622C271.936 0 274.622 2.68629 274.622 6C274.622 9.31371 271.936 12 268.622 12H242.622C239.308 12 236.622 9.31371 236.622 6Z" fill="#0F5976"/>
<path d="M236.622 99C236.622 95.6863 239.308 93 242.622 93H268.622C271.936 93 274.622 95.6863 274.622 99C274.622 102.314 271.936 105 268.622 105H242.622C239.308 105 236.622 102.314 236.622 99Z" fill="#0F5976"/>
<path d="M226.622 21.5C226.622 18.4624 229.084 16 232.122 16H279.122C282.159 16 284.622 18.4624 284.622 21.5C284.622 24.5376 282.159 27 279.122 27H232.122C229.084 27 226.622 24.5376 226.622 21.5Z" fill="#0F5976"/>
<path d="M226.622 83.5C226.622 80.4624 229.084 78 232.122 78H279.122C282.159 78 284.622 80.4624 284.622 83.5C284.622 86.5376 282.159 89 279.122 89H232.122C229.084 89 226.622 86.5376 226.622 83.5Z" fill="#0F5976"/>
<path d="M217.622 37C217.622 33.6863 220.308 31 223.622 31H287.622C290.936 31 293.622 33.6863 293.622 37C293.622 40.3137 290.936 43 287.622 43H223.622C220.308 43 217.622 40.3137 217.622 37Z" fill="#0F5976"/>
<path d="M217.622 68C217.622 64.6863 220.308 62 223.622 62H287.622C290.936 62 293.622 64.6863 293.622 68C293.622 71.3137 290.936 74 287.622 74H223.622C220.308 74 217.622 71.3137 217.622 68Z" fill="#0F5976"/>
<path d="M212.622 52.5C212.622 49.4624 215.084 47 218.122 47H293.122C296.159 47 298.622 49.4624 298.622 52.5C298.622 55.5376 296.159 58 293.122 58H218.122C215.084 58 212.622 55.5376 212.622 52.5Z" fill="#0F5976"/>
</svg>
