<svg width="86" height="105" viewBox="0 0 86 105" fill="none" xmlns="http://www.w3.org/2000/svg">
<path d="M24 6C24 2.68629 26.6863 0 30 0H56C59.3137 0 62 2.68629 62 6C62 9.31371 59.3137 12 56 12H30C26.6863 12 24 9.31371 24 6Z" fill="#3F94B1"/>
<path d="M24 99C24 95.6863 26.6863 93 30 93H56C59.3137 93 62 95.6863 62 99C62 102.314 59.3137 105 56 105H30C26.6863 105 24 102.314 24 99Z" fill="#3F94B1"/>
<path d="M14 21.5C14 18.4624 16.4624 16 19.5 16H66.5C69.5376 16 72 18.4624 72 21.5C72 24.5376 69.5376 27 66.5 27H19.5C16.4624 27 14 24.5376 14 21.5Z" fill="#3F94B1"/>
<path d="M14 83.5C14 80.4624 16.4624 78 19.5 78H66.5C69.5376 78 72 80.4624 72 83.5C72 86.5376 69.5376 89 66.5 89H19.5C16.4624 89 14 86.5376 14 83.5Z" fill="#3F94B1"/>
<path d="M5 37C5 33.6863 7.68629 31 11 31H75C78.3137 31 81 33.6863 81 37C81 40.3137 78.3137 43 75 43H11C7.68629 43 5 40.3137 5 37Z" fill="#3F94B1"/>
<path d="M5 68C5 64.6863 7.68629 62 11 62H75C78.3137 62 81 64.6863 81 68C81 71.3137 78.3137 74 75 74H11C7.68629 74 5 71.3137 5 68Z" fill="#3F94B1"/>
<path d="M0 52.5C0 49.4624 2.46243 47 5.5 47H80.5C83.5376 47 86 49.4624 86 52.5C86 55.5376 83.5376 58 80.5 58H5.5C2.46243 58 0 55.5376 0 52.5Z" fill="#3F94B1"/>
</svg>
