<svg width="181" height="199" viewBox="0 0 181 199" fill="none" xmlns="http://www.w3.org/2000/svg">
<circle cx="34" cy="20" r="20" fill="#0F5976"/>
<circle cx="9.5" cy="54.5" r="9.5" fill="#0F5976"/>
<circle cx="58.5" cy="54.5" r="9.5" fill="#0F5976"/>
<circle cx="44" cy="190" r="9" fill="#0F5976"/>
<circle cx="24" cy="190" r="9" fill="#0F5976"/>
<circle cx="6.5" cy="118.5" r="6.5" fill="#0F5976"/>
<path d="M59.5 45H10L0 56V118.5H13V65H15V190.5H33V124H35V190.5H53V65H55V118.5H68V56L59.5 45Z" fill="#0F5976"/>
<circle cx="61.5" cy="118.5" r="6.5" fill="#0F5976"/>
<circle cx="133" cy="20" r="20" fill="#3F94B1"/>
<path d="M105 54.5C105 53.0573 105.329 51.6335 105.961 50.3367C106.593 49.0399 107.512 47.9041 108.649 47.0156C109.786 46.127 111.11 45.509 112.521 45.2085C113.932 44.9079 115.393 44.9326 116.793 45.2809L114.5 54.5L105 54.5Z" fill="#3F94B1"/>
<path d="M147.528 45.8704C148.838 45.2671 150.269 44.9703 151.711 45.0023C153.154 45.0344 154.57 45.3946 155.852 46.0555C157.135 46.7165 158.25 47.6608 159.113 48.8169C159.976 49.973 160.564 51.3105 160.833 52.7279L151.5 54.5L147.528 45.8704Z" fill="#3F94B1"/>
<circle cx="122.5" cy="190.5" r="8.5" fill="#3F94B1"/>
<circle cx="143.5" cy="190.5" r="8.5" fill="#3F94B1"/>
<circle cx="174.5" cy="107.5" r="6.5" fill="#3F94B1"/>
<circle cx="91.5" cy="108.5" r="6.5" fill="#3F94B1"/>
<path d="M151 45H115L105.5 52L85.5 106L97.5 111L113 70H116V72L98 133.5H114V190.5H131V134H135V191H152V133.5H169L151 72V70H153.5L168.5 110L180.5 105L160.5 52L151 45Z" fill="#3F94B1"/>
</svg>
